<?xml version="1.0" encoding="UTF-8"?>
<svg xmlns="http://www.w3.org/2000/svg" viewBox="540 0 700 980">
  <defs>
    <style>
      .cls-1 {
        fill: #205cfc;
      }
    </style>
  </defs>
  <path class="cls-1" d="M980.04,114.59c2.12.96,4.62.15,5.76-1.88l32.51-57.32c1.08-1.9.92-4.27-.43-5.98-4.8-6.03-14.12-10.2-19.72-12.28-2.52-.94-5.31.34-6.25,2.85l-23.28,61.74c-.8,2.12-.35,4.55,1.24,6.16,3.12,3.14,7.22,5.37,10.18,6.71Z"/>
  <path class="cls-1" d="M1016.75,145.6c1.2,5.99,5.01,9.23,8.03,10.9,2.18,1.21,4.85,1.08,6.96-.24l61.17-38.38c3.03-1.9,4.02-5.86,2.23-8.97-2.9-5.04-7.84-10.87-11.39-14.8-2.32-2.57-6.26-2.83-8.91-.6l-56.37,47.38c-1.37,1.15-2.07,2.96-1.72,4.72Z"/>
  <path class="cls-1" d="M1040.31,199.35l1.31,10.7c.2,1.6,1.44,2.86,3.03,3.09l63.54,9.04c2.22.32,4.38-.86,5.3-2.91,2.19-4.9,5.11-15.14,1.7-23.95-1.02-2.62-3.47-4.4-6.28-4.58-9.18-.59-33.44-1.27-65.52,4.45-1.96.35-3.32,2.17-3.08,4.14Z"/>
  <path class="cls-1" d="M1227.54,826.46c-21.94-38.13-234.58-17.42-269.03-17.03-34.45.39-126.19,15.48-120.39-11.23s168.77-33.29,247.74-37.55c78.97-4.26,76.39-24,76.39-24,5.81-38.71-124.45-79.35-124.45-79.35-6.15-15.45-5.55-73.45-5.52-94.22,0-4.67-1.94-9.11-5.36-12.29-14.26-13.28-33.05-35.85-33.05-35.85,20.52-21.68,4.65-48.77,4.65-48.77l-15.65-33.68c-.48-1.04-.06-2.27.97-2.79,13.09-6.61,63.25-35.59,29.9-131.6-35.23-101.42-130.19-99.23-130.19-99.23C782.12-15.96,696.06,41.33,696.06,41.33c-65.53,37.89-21.47,119.47-10.13,138.23.97,1.61-.17,3.67-2.05,3.68-44.28.28-137.77,67.2-140.14,158.67-5.09,196.62,174.9,185.48,174.9,185.48,0,0,70.9,76.38,172.89-3.87,1.04-.82,2.54-.63,3.31.44,4.33,5.97,18.63,23.37,38.5,23.69l6.44,47.53c.7,5.18,3.58,9.81,7.9,12.75,16.09,10.91,56.31,39.17,71.79,58.94,0,0,104.9,33.29,103.35,55.35-1.55,22.06-111.1,30-111.1,30,0,0-65.17,1.94-130.39,3.03-59.97,1-89.29,25.23-95,45.9-1.47,5.33-16.56,38.94,41.97,45.84,60.52,7.13,230.9-20.13,208.65,13.94-22.26,34.06-100.26,85.03-125.81,104.13-25.55,19.1-85.68,21.64-85.68,21.64h316.26c-27.48-4.72,57.94-90.05,57.94-90.05,0,0,44.15-41.9,27.87-70.19ZM897.48,229.11l.39-.24c.68-.42,1.46-.62,2.25-.56,10.91.76,90.04,10.46,98.21,131.15,2.71,40.11-24.49,46.16-33.53,47.07-1.79.18-3.58-.35-4.99-1.46-13.71-10.74-20.77-23.78-23.26-29.1-.68-1.45-.83-3.09-.42-4.64,3.03-11.37,13.84-65.03-33.27-120.3-.76-.89-1.28-1.95-1.51-3.09-.68-3.44-2.35-11.32-4.4-17.31.2-.57.33-.95.53-1.51ZM706.59,65.91c46.62-25.83,104.6,51.32,163.18,162.8,0,0-.02,1.6-1.55.9-57.76-26.41-128.62-43-147.03-47.35-2.93-.69-5.45-2.5-7.03-5.06-10.69-17.22-50.39-87.57-7.56-111.29ZM703.23,501.08c-83.29-.58-116.97-72.58-116.97-72.58,0,0-45.61-96.9,19.81-170.06,52.13-58.3,100.25-53.06,117.64-48.52,7.4,1.93,14.83,3.73,22.32,5.29,77.53,16.14,116.43,39.04,116.43,39.04,34.49,18.58,79.74,101.68,38.65,132.26-40.19,29.9-87.73-32.81-87.73-32.81-4.95-6.72-8.5-21.67-18.44-17.54s-25.84,9.23-25.84,9.23c-22.84,8.34-49.31,10.83-57.69,11.44-2.96.21-5.82,1.27-8.08,3.19-2.14,1.82-4.04,4.55-3.77,8.46.05.68.12,1.33.23,1.93.84,4.86,4.79,8.58,9.68,9.27,11.08,1.56,43.96,4.34,76.06-11.27.47-.23.98.2.82.7-1.3,3.91-6.39,15.51-16.53,26.54-9.85,10.71-13.35,23.79-14.36,28.64-.24,1.16-1.22,2-2.39,2.11-70.98,6.76-49.42,74.69-49.83,74.69ZM864.19,472.82c-47.8,2.45-82.87-10.74-83.44-39.37-.46-23.11,20.72-34.32,29.36-37.92,2.11-.88,4.53-.5,6.28.99,3.83,3.26,11.22,9.28,18.58,13.86.9.56,1.63,1.35,2.09,2.31l28.22,58.32c.4.82-.17,1.78-1.08,1.83ZM876.88,500.66c-10.33,9.12-52.29,42.9-96.13,32.32-44.29-10.69-61.86-36-54.9-60.77,5.68-20.19,23.41-20.25,29.78-19.58,1.34.14,2.52.96,3.11,2.18,4.43,9.24,29.12,50.05,117.32,43.9,1.07-.07,1.63,1.25.83,1.96ZM903.65,488.05l-31.28-64.7c-.58-1.21.24-2.62,1.58-2.7,8.32-.49,32.94-3.13,46.06-17.35.78-.85,2.13-.8,2.84.1,3.4,4.31,12.95,15.62,26.96,25.9,1.39,1.02,2.51,2.37,3.29,3.9,2.98,5.86,10.51,20.68,13.28,26.22,0,0,.58,1.27-1.23,1.55-33.16,5.03-59.1,27.92-59.1,27.92-.9.43-1.97.05-2.41-.84ZM933.82,518.38c-.9.43-1.86.72-2.85.84-1.2.15-2.86.26-4.32,0-.68-.12-1.28-.5-1.71-1.04l-2.36-2.92c-1.35-1.67-1.13-4.1.48-5.51,6.68-5.85,24.7-19.86,48.89-24.77,3.06-.62,6.27,1.12,7.03,4.15.26,1.03.26,2.23-.2,3.59-1.66,4.89-37.85,22.28-44.96,25.66ZM989.23,600.16h-.01s10.26,20.09,10.26,20.09c.19.38-.28.74-.59.45-12.07-11.5-35.01-26.99-37.05-28.36-.1-.06-.15-.16-.15-.28-.16-14.32-5.6-44.37-7.1-52.39-.23-1.21.32-2.43,1.38-3.08l13.92-8.47c1.61-.98,3.69-.69,4.96.71,8.21,9,34.72,38.19,36.55,40.2.06.07.1.16.1.26-.05,2.26-.63,30.41,1.14,43.57.05.41-.48.59-.7.24l-11.59-18.89h-.01"/>
  <path class="cls-1" d="M990.52,578.21c-6.08,0-11.02,4.93-11.02,11.02,0,5.65,4.25,10.29,9.72,10.93l11.1-5.94c.77-1.5,1.21-3.19,1.21-4.99,0-6.08-4.93-11.02-11.02-11.02Z"/>
</svg>