<svg xmlns="http://www.w3.org/2000/svg" xmlns:xlink="http://www.w3.org/1999/xlink" width="1080" zoomAndPan="magnify" viewBox="0 0 810 809.999993" height="1080" preserveAspectRatio="xMidYMid meet" version="1.2"><defs><clipPath id="9483a78d6c"><path d="M 126 78 L 724 78 L 724 734 L 126 734 Z M 126 78 "/></clipPath><clipPath id="0488afe277"><path d="M 122.492188 47.710938 L 787.679688 148.277344 L 687.671875 809.761719 L 22.480469 709.191406 Z M 122.492188 47.710938 "/></clipPath><clipPath id="d05bb70574"><path d="M 122.492188 47.710938 L 787.679688 148.277344 L 687.671875 809.761719 L 22.480469 709.191406 Z M 122.492188 47.710938 "/></clipPath></defs><g id="58db79a5a6"><g clip-rule="nonzero" clip-path="url(#9483a78d6c)"><g clip-rule="nonzero" clip-path="url(#0488afe277)"><g clip-rule="nonzero" clip-path="url(#d05bb70574)"><path style=" stroke:none;fill-rule:nonzero;fill:#205cfc;fill-opacity:1;" d="M 234.535156 662.902344 C 187.558594 497.074219 160.203125 332.453125 128.5625 171.609375 C 115.632812 103.570312 179.582031 56.414062 240.757812 88.882812 C 385.054688 166.691406 534.203125 241.449219 678.765625 335.355469 C 750.140625 383.238281 731.058594 487.621094 655.164062 490.472656 C 604.773438 493.355469 554.570312 498.441406 504.363281 504.804688 C 479.394531 507.96875 458.367188 523.503906 447.96875 546.386719 C 427.050781 592.46875 407.355469 638.886719 389.699219 686.210938 C 364.539062 757.867188 259.179688 745.242188 234.535156 662.902344 Z M 234.535156 662.902344 "/></g></g></g></g></svg>